HIERARCHY
ROOT Hips
{
  OFFSET 5.84602e-005 68.8428 3.50346
  CHANNELS 6 Xposition Yposition Zposition Zrotation Xrotation Yrotation
  JOINT Spine
  {
    OFFSET 0 8.597 -4.6522
    CHANNELS 3 Zrotation Xrotation Yrotation
    JOINT Spine1
    {
      OFFSET 0 7.8454 0.4098
      CHANNELS 3 Zrotation Xrotation Yrotation
      JOINT Spine2
      {
        OFFSET 0 9.7078 -2.1609
        CHANNELS 3 Zrotation Xrotation Yrotation
        JOINT Neck
        {
          OFFSET 0 21.8761 -0.4549
          CHANNELS 3 Zrotation Xrotation Yrotation
          JOINT Head
          {
            OFFSET 0 12.3537 3.3602
            CHANNELS 3 Zrotation Xrotation Yrotation
            End Site
            {
              OFFSET 0.0001 18.9506 0.5657
            }
          }
        }
        JOINT LeftShoulder
        {
          OFFSET 2.2086 21.1115 7.2329
          CHANNELS 3 Zrotation Xrotation Yrotation
          JOINT LeftArm
          {
            OFFSET 13.1193 3.0282 -4.8998
            CHANNELS 3 Zrotation Xrotation Yrotation
            JOINT LeftForeArm
            {
              OFFSET 27.4081 -0.0973053 -0.2375
              CHANNELS 3 Zrotation Xrotation Yrotation
              JOINT LeftHand
              {
                OFFSET 22.8641 0.0662994 -0.1369
                CHANNELS 3 Zrotation Xrotation Yrotation
                JOINT LeftHandIndex1
                {
                  OFFSET 8.8614 0.775009 2.4612
                  CHANNELS 3 Zrotation Xrotation Yrotation
                  JOINT LeftHandIndex2
                  {
                    OFFSET 3.3146 -0.808304 0.5841
                    CHANNELS 3 Zrotation Xrotation Yrotation
                    JOINT LeftHandIndex3
                    {
                      OFFSET 2.2628 -0.552002 0.3989
                      CHANNELS 3 Zrotation Xrotation Yrotation
                      End Site
                      {
                        OFFSET 1.6102 -0.4807 0.2612
                      }
                    }
                  }
                }
                JOINT LeftHandMiddle1
                {
                  OFFSET 8.9937 0.895004 0.2143
                  CHANNELS 3 Zrotation Xrotation Yrotation
                  JOINT LeftHandMiddle2
                  {
                    OFFSET 4.0984 0.0113983 -0.0242
                    CHANNELS 3 Zrotation Xrotation Yrotation
                    JOINT LeftHandMiddle3
                    {
                      OFFSET 2.2716 0.00689697 -0.0138001
                      CHANNELS 3 Zrotation Xrotation Yrotation
                      End Site
                      {
                        OFFSET 2.0404 -0.1441 0.0027
                      }
                    }
                  }
                }
                JOINT LeftHandRing1
                {
                  OFFSET 8.5234 0.597198 -2.0164
                  CHANNELS 3 Zrotation Xrotation Yrotation
                  JOINT LeftHandRing2
                  {
                    OFFSET 3.7188 -0.188293 -0.2328
                    CHANNELS 3 Zrotation Xrotation Yrotation
                    JOINT LeftHandRing3
                    {
                      OFFSET 2.1191 -0.106598 -0.1332
                      CHANNELS 3 Zrotation Xrotation Yrotation
                      End Site
                      {
                        OFFSET 1.8737 -0.2304 -0.0886
                      }
                    }
                  }
                }
                JOINT LeftHandPinky1
                {
                  OFFSET 7.9094 -0.601089 -3.4825
                  CHANNELS 3 Zrotation Xrotation Yrotation
                  JOINT LeftHandPinky2
                  {
                    OFFSET 2.2874 -0.477005 -0.6314
                    CHANNELS 3 Zrotation Xrotation Yrotation
                    JOINT LeftHandPinky3
                    {
                      OFFSET 1.6774 -0.349396 -0.4633
                      CHANNELS 3 Zrotation Xrotation Yrotation
                      End Site
                      {
                        OFFSET 1.4888 -0.4091 -0.3416
                      }
                    }
                  }
                }
                JOINT LeftHandThumb1
                {
                  OFFSET 1.833 -1.3875 1.3896
                  CHANNELS 3 Zrotation Xrotation Yrotation
                  JOINT LeftHandThumb2
                  {
                    OFFSET 3.4129 -1.121 2.5732
                    CHANNELS 3 Zrotation Xrotation Yrotation
                    JOINT LeftHandThumb3
                    {
                      OFFSET 2.2474 -0.804199 1.6192
                      CHANNELS 3 Zrotation Xrotation Yrotation
                      End Site
                      {
                        OFFSET 1.6527 -0.5689 1.1317
                      }
                    }
                  }
                }
              }
            }
          }
        }
        JOINT RightShoulder
        {
          OFFSET -2.2086 21.1115 7.2329
          CHANNELS 3 Zrotation Xrotation Yrotation
          JOINT RightArm
          {
            OFFSET -13.1216 3.0287 -4.9007
            CHANNELS 3 Zrotation Xrotation Yrotation
            JOINT RightForeArm
            {
              OFFSET -27.4081 -0.0973053 -0.2375
              CHANNELS 3 Zrotation Xrotation Yrotation
              JOINT RightHand
              {
                OFFSET -22.8641 0.0664063 -0.1369
                CHANNELS 3 Zrotation Xrotation Yrotation
                JOINT RightHandIndex1
                {
                  OFFSET -8.8614 0.774994 2.4612
                  CHANNELS 3 Zrotation Xrotation Yrotation
                  JOINT RightHandIndex2
                  {
                    OFFSET -3.3146 -0.808304 0.5841
                    CHANNELS 3 Zrotation Xrotation Yrotation
                    JOINT RightHandIndex3
                    {
                      OFFSET -2.2628 -0.552002 0.3989
                      CHANNELS 3 Zrotation Xrotation Yrotation
                      End Site
                      {
                        OFFSET -1.6102 -0.4807 0.2612
                      }
                    }
                  }
                }
                JOINT RightHandMiddle1
                {
                  OFFSET -8.9937 0.894989 0.2143
                  CHANNELS 3 Zrotation Xrotation Yrotation
                  JOINT RightHandMiddle2
                  {
                    OFFSET -4.0984 0.0113983 -0.0242
                    CHANNELS 3 Zrotation Xrotation Yrotation
                    JOINT RightHandMiddle3
                    {
                      OFFSET -2.2716 0.00691223 -0.0138001
                      CHANNELS 3 Zrotation Xrotation Yrotation
                      End Site
                      {
                        OFFSET -2.0404 -0.1441 0.0027
                      }
                    }
                  }
                }
                JOINT RightHandRing1
                {
                  OFFSET -8.5234 0.597198 -2.0164
                  CHANNELS 3 Zrotation Xrotation Yrotation
                  JOINT RightHandRing2
                  {
                    OFFSET -3.7188 -0.188309 -0.2328
                    CHANNELS 3 Zrotation Xrotation Yrotation
                    JOINT RightHandRing3
                    {
                      OFFSET -2.1191 -0.106598 -0.1332
                      CHANNELS 3 Zrotation Xrotation Yrotation
                      End Site
                      {
                        OFFSET -1.8737 -0.2304 -0.0886
                      }
                    }
                  }
                }
                JOINT RightHandPinky1
                {
                  OFFSET -7.9094 -0.601105 -3.4825
                  CHANNELS 3 Zrotation Xrotation Yrotation
                  JOINT RightHandPinky2
                  {
                    OFFSET -2.2874 -0.477005 -0.6314
                    CHANNELS 3 Zrotation Xrotation Yrotation
                    JOINT RightHandPinky3
                    {
                      OFFSET -1.6774 -0.349396 -0.4633
                      CHANNELS 3 Zrotation Xrotation Yrotation
                      End Site
                      {
                        OFFSET -1.4888 -0.4091 -0.3416
                      }
                    }
                  }
                }
                JOINT RightHandThumb1
                {
                  OFFSET -1.833 -1.38751 1.3896
                  CHANNELS 3 Zrotation Xrotation Yrotation
                  JOINT RightHandThumb2
                  {
                    OFFSET -3.41299 -1.12099 2.5732
                    CHANNELS 3 Zrotation Xrotation Yrotation
                    JOINT RightHandThumb3
                    {
                      OFFSET -2.24741 -0.804108 1.6192
                      CHANNELS 3 Zrotation Xrotation Yrotation
                      End Site
                      {
                        OFFSET -1.6527 -0.5689 1.1317
                      }
                    }
                  }
                }
              }
            }
          }
        }
      }
    }
  }
  JOINT RightUpLeg
  {
    OFFSET -9.1966 3.8861 -0.7581
    CHANNELS 3 Zrotation Xrotation Yrotation
    JOINT RightLeg
    {
      OFFSET -0.7359 -41.0265 0
      CHANNELS 3 Zrotation Xrotation Yrotation
      JOINT RightFoot
      {
        OFFSET 0 -40.2855 0
        CHANNELS 3 Zrotation Xrotation Yrotation
        JOINT RightToeBase
        {
          OFFSET 0 -5.6122 11.7359
          CHANNELS 3 Zrotation Xrotation Yrotation
          End Site
          {
            OFFSET 0 0 7.8731
          }
        }
      }
    }
  }
  JOINT LeftUpLeg
  {
    OFFSET 9.1965 3.8864 -0.7581
    CHANNELS 3 Zrotation Xrotation Yrotation
    JOINT LeftLeg
    {
      OFFSET 0.7359 -41.0268 0
      CHANNELS 3 Zrotation Xrotation Yrotation
      JOINT LeftFoot
      {
        OFFSET 0 -40.2855 0
        CHANNELS 3 Zrotation Xrotation Yrotation
        JOINT LeftToeBase
        {
          OFFSET 0 -5.6122 11.7359
          CHANNELS 3 Zrotation Xrotation Yrotation
          End Site
          {
            OFFSET 0 0 7.8731
          }
        }
      }
    }
  }
}
MOTION
Frames:	5
Frame Time:	0.0333333
5.84602e-005 68.8428 3.50346 0 0 -0 0 0 -0 0 0 -0 0 0 -0 0 0 -0 0 0 -0 0 0 -0 0 0 -0 0 0 -0 0 0 -0 0 0 -0 0 0 -0 0 0 -0 0 0 -0 -0.0146107 -8.87603e-005 -2.63497e-007 2.99804e-018 -2.42657e-020 -1.42182e-022 0 0 -0 -0.0187562 -0.001176 5.858e-005 5.06224e-018 3.88251e-019 1.21329e-020 0 0 -0 -0.012269 -0.00324817 0.000675346 -1.74678e-018 3.88251e-019 -0 0 0 -0 0 0 -0 0 0 -0 0 0 -0 0 0 -0 0 0 -0 0 0 -0 0 0 -0 0 0 -0 0 0 -0 0 0 -0 0.0149955 -9.10982e-005 2.64101e-007 -9.69331e-018 1.21329e-020 -4.7394e-023 0 0 -0 0.0189956 -0.00119102 -5.96516e-005 -5.41541e-019 0 2.42657e-020 0 0 -0 0.0122698 -0.00324857 -0.000673756 -2.00796e-019 0 -1.94126e-019 0 0 -0 0 0 -0 0 0 -0 3.39842 1.33031 -0.0637918 -5.65207e-008 0.834868 -0.000436188 -3.39935 -2.16518 -0.0642563 -8.89002e-024 -1.18485e-023 -1.48106e-024 -3.39844 1.35642 0.0640283 -3.18788e-007 0.782166 -0.000588827 3.39931 -2.13858 0.0634662 1.1399e-023 0 -0 
0.0581977 34.0369 6.52692 -0 -86.0149 -0 5.12484e-016 -1.40083 -1.13388e-014 -1.2612e-021 -2.80164 -2.41467e-022 3.67349e-022 -2.80168 2.21303e-023 16.9982 -0.00242404 -15.0012 -21.2395 8.39632 11.247 20.9968 0.136461 -0.00215916 -78.6374 47.6506 8.92886 1.59499 1.20356 -53.0204 10.7353 -2.99008 -5.00724 1.38912e-006 1.82447e-006 -1.13541e-006 9.26079e-007 1.21632e-006 -7.56938e-007 4.63039e-007 6.08158e-007 -3.78469e-007 1.38912e-006 1.82447e-006 -1.13541e-006 -0.0145976 -8.62998e-005 -1.1141e-005 4.63044e-007 6.08206e-007 -3.78392e-007 1.38912e-006 1.82447e-006 -1.13541e-006 -0.0187479 -0.00117738 6.17756e-005 4.63042e-007 6.0822e-007 -3.78374e-007 1.38912e-006 1.82447e-006 -1.13541e-006 -0.0122635 -0.00323949 0.000673574 4.63036e-007 6.08196e-007 -3.78417e-007 1.38912e-006 1.82447e-006 -1.13541e-006 9.26079e-007 1.21632e-006 -7.56938e-007 4.63039e-007 6.08158e-007 -3.78469e-007 -20.4569 -13.3113 -1.93491 45.2613 -79.9523 84.3501 4.19717 2.71791 122.895 -1.79091 -2.9939 4.00383 8.45476e-007 5.12845e-009 -8.53521e-007 3.60334e-009 5.30937e-008 3.92387e-009 8.45476e-007 5.12845e-009 -8.53521e-007 8.45476e-007 5.12845e-009 -8.53521e-007 0.0150137 -9.11561e-005 9.22439e-007 8.45491e-007 5.01651e-009 -8.53522e-007 8.45476e-007 5.12845e-009 -8.53521e-007 0.0189656 -0.00118909 -5.90973e-005 8.45487e-007 4.98637e-009 -8.53531e-007 8.45476e-007 5.12845e-009 -8.53521e-007 0.0122978 -0.00325506 -0.000677776 8.45465e-007 5.03843e-009 -8.53546e-007 8.45476e-007 5.12845e-009 -8.53521e-007 3.60334e-009 5.30937e-008 3.92387e-009 8.45476e-007 5.12845e-009 -8.53521e-007 -4.23457 -38.4305 2.82601 0.0316234 82.4014 -20.5544 -2.92882 39.6652 0.163018 -5.0254e-007 -1.73142e-007 -2.9206e-007 -1.46086 2.61958 11.3748 -1.28695 0.640095 6.09169 -5.65432 6.31075 8.29535 -7.92171e-007 1.7684e-008 1.68006e-006 
0.0581977 34.0369 6.52692 -0 -86.0149 -0 5.12484e-016 -1.40083 -1.13388e-014 -1.2612e-021 -2.80164 -2.41467e-022 3.67349e-022 -2.80168 2.21303e-023 16.9982 -0.00250342 -15.0012 -21.2395 8.39633 11.247 20.9968 0.136461 -0.00215929 -78.6375 47.6507 8.92888 1.595 1.20357 -53.0204 10.7353 -2.99007 -5.00724 3.35871e-006 -6.35842e-007 -6.057e-007 1.38912e-006 1.82447e-006 -1.13541e-006 1.59215e-006 3.91193e-008 -1.87989e-006 3.35871e-006 -6.35842e-007 -6.057e-007 -0.0146137 -8.86478e-005 -1.05714e-005 3.35891e-006 -6.35763e-007 -6.05784e-007 3.35871e-006 -6.35842e-007 -6.057e-007 -0.0187505 -0.00117916 5.71333e-005 3.35896e-006 -6.35728e-007 -6.0584e-007 3.35871e-006 -6.35842e-007 -6.057e-007 -0.0122658 -0.00324586 0.000670786 1.59103e-006 3.9027e-008 -1.87987e-006 3.35871e-006 -6.35842e-007 -6.057e-007 1.38912e-006 1.82447e-006 -1.13541e-006 1.59215e-006 3.91193e-008 -1.87989e-006 -20.4569 -13.3113 -1.93491 45.2613 -79.9523 84.3502 4.19717 2.71791 122.895 -1.79091 -2.9939 4.00383 8.45476e-007 5.12851e-009 -8.53521e-007 3.60334e-009 5.30937e-008 3.92388e-009 8.45476e-007 5.1285e-009 -8.53521e-007 8.45476e-007 5.12851e-009 -8.53521e-007 0.0149869 -9.09345e-005 1.32251e-006 6.91852e-007 -1.12307e-009 -7.80663e-007 8.45476e-007 5.12851e-009 -8.53521e-007 0.0190163 -0.00119219 -5.97741e-005 8.45487e-007 4.98605e-009 -8.53531e-007 8.45476e-007 5.12851e-009 -8.53521e-007 0.0122969 -0.00325539 -0.000676945 8.45465e-007 5.03849e-009 -8.53546e-007 8.45476e-007 5.12851e-009 -8.53521e-007 3.60334e-009 5.30937e-008 3.92388e-009 8.45476e-007 5.1285e-009 -8.53521e-007 -4.23457 -38.4306 2.82602 0.0315981 82.4015 -20.5544 -2.92881 39.6651 0.163017 9.19061e-007 -2.4699e-007 1.13496e-008 -1.46086 2.61958 11.3748 -1.28695 0.640095 6.09169 -5.65432 6.31075 8.29535 -7.92171e-007 1.7684e-008 1.68006e-006 
0.0581977 34.0369 6.52692 -0 -86.0149 -0 5.12484e-016 -1.40083 -1.13388e-014 -1.2612e-021 -2.80164 -2.41467e-022 3.67349e-022 -2.80168 2.21303e-023 16.9982 -0.00244109 -15.0013 -21.2395 8.39633 11.247 20.9968 0.136471 -0.00216105 -78.6374 47.6506 8.92888 1.595 1.20357 -53.0204 10.7353 -2.99007 -5.00724 -4.6304e-007 -6.08158e-007 3.78469e-007 -2.3152e-007 -3.04079e-007 1.89234e-007 -4.6304e-007 -6.08158e-007 3.78469e-007 -4.6304e-007 -6.08158e-007 3.78469e-007 -0.0146165 -9.05251e-005 3.09394e-006 -4.63044e-007 -6.08206e-007 3.78391e-007 -4.6304e-007 -6.08158e-007 3.78469e-007 -0.0187408 -0.00117648 5.34614e-005 -4.63042e-007 -6.0822e-007 3.78374e-007 -4.6304e-007 -6.08158e-007 3.78469e-007 -0.0122885 -0.00325183 0.000674613 1.3048e-006 -1.28298e-006 1.65241e-006 -4.6304e-007 -6.08158e-007 3.78469e-007 -2.3152e-007 -3.04079e-007 1.89234e-007 -4.6304e-007 -6.08158e-007 3.78469e-007 -20.4569 -13.3113 -1.9349 45.2613 -79.9523 84.3501 4.19717 2.71791 122.895 -1.79091 -2.9939 4.00383 8.45476e-007 5.12849e-009 -8.53521e-007 5.05859e-007 8.52745e-008 -4.57304e-007 8.45476e-007 5.12848e-009 -8.53521e-007 8.45476e-007 5.12849e-009 -8.53521e-007 0.0150137 -9.12424e-005 -7.92499e-007 8.45491e-007 5.01657e-009 -8.53522e-007 8.45476e-007 5.12849e-009 -8.53521e-007 0.0189665 -0.00118909 -5.90977e-005 8.45487e-007 4.9864e-009 -8.53531e-007 8.45476e-007 5.12849e-009 -8.53521e-007 0.0122977 -0.00325535 -0.000676089 8.45465e-007 5.03846e-009 -8.53546e-007 8.45476e-007 5.12849e-009 -8.53521e-007 5.05859e-007 8.52745e-008 -4.57304e-007 8.45476e-007 5.12848e-009 -8.53521e-007 -4.23457 -38.4305 2.82601 0.0316441 82.4014 -20.5544 -2.92883 39.6651 0.163027 -8.31921e-007 -5.0471e-007 -1.63213e-006 -1.46024 2.61648 11.3748 -1.28695 0.64648 6.09157 -5.65466 6.30752 8.29523 -1.22967e-006 4.48956e-006 1.2927e-006 
0.0581977 34.0369 6.52692 -0 -86.0149 -0 5.44508e-016 -1.40083 -1.20475e-014 -8.43146e-022 -2.80164 9.43602e-022 1.60653e-022 -2.80168 -7.98298e-022 16.9982 -0.00252362 -15.0012 -21.2395 8.39632 11.247 20.9968 0.136461 -0.00215916 -78.6374 47.6506 8.92886 1.59499 1.20356 -53.0204 10.7353 -2.99008 -5.00724 1.38912e-006 1.82447e-006 -1.13541e-006 9.26079e-007 1.21632e-006 -7.56938e-007 4.63039e-007 6.08158e-007 -3.78469e-007 1.38912e-006 1.82447e-006 -1.13541e-006 -0.0145976 -8.62998e-005 -1.1141e-005 4.63044e-007 6.08206e-007 -3.78392e-007 1.38912e-006 1.82447e-006 -1.13541e-006 -0.0187479 -0.00117738 6.17756e-005 4.63042e-007 6.0822e-007 -3.78374e-007 1.38912e-006 1.82447e-006 -1.13541e-006 -0.0122635 -0.00323949 0.000673574 4.63036e-007 6.08196e-007 -3.78417e-007 1.38912e-006 1.82447e-006 -1.13541e-006 9.26079e-007 1.21632e-006 -7.56938e-007 4.63039e-007 6.08158e-007 -3.78469e-007 -20.4569 -13.3113 -1.93491 45.2613 -79.9523 84.3501 4.19717 2.71791 122.895 -1.79091 -2.9939 4.00383 8.45476e-007 5.12845e-009 -8.53521e-007 3.60334e-009 5.30937e-008 3.92388e-009 8.45476e-007 5.12845e-009 -8.53521e-007 8.45476e-007 5.12845e-009 -8.53521e-007 0.0150137 -9.11561e-005 9.22439e-007 8.45491e-007 5.01651e-009 -8.53522e-007 8.45476e-007 5.12845e-009 -8.53521e-007 0.0189656 -0.00118909 -5.90973e-005 8.45487e-007 4.98637e-009 -8.53531e-007 8.45476e-007 5.12845e-009 -8.53521e-007 0.0122978 -0.00325506 -0.000677776 8.45465e-007 5.03843e-009 -8.53546e-007 8.45476e-007 5.12845e-009 -8.53521e-007 3.60334e-009 5.30937e-008 3.92388e-009 8.45476e-007 5.12845e-009 -8.53521e-007 -4.23456 -38.4306 2.82602 0.0315302 82.4014 -20.5543 -2.92881 39.6651 0.163014 4.25081e-008 -2.08511e-007 1.57707e-008 -1.46086 2.61958 11.3748 -1.28695 0.640095 6.09169 -5.65432 6.31075 8.29535 -7.92171e-007 1.7684e-008 1.68006e-006 
